# xmcd
#
# Track frame offsets:
#	150
#	18582
#	35219
#	60194
#	101280
#	126317
#
# Disc length: 2412 seconds
#
# Revision: 0
# Processed by: cddbd v1.5.2PL0 Copyright (c) Steve Scherf et al.
# Submitted via: audiograbber 1.83.01
#
DISCID=48096a06
DTITLE=driftin - Platteis
DYEAR=2007
DGENRE=
TTITLE0=Manis 3er Idee
TTITLE1=Balck Magic Woman
TTITLE2=Driftin Blues
TTITLE3=Glatteis
TTITLE4=Nothing at All
TTITLE5=Ain´t no Time
EXTD=
EXTT0=
EXTT1=
EXTT2=
EXTT3=
EXTT4=
EXTT5=
PLAYORDER=
